<?xml version="1.0" encoding="iso-8859-1"?>
<!-- Uploaded to: SVG Repo, www.svgrepo.com, Generator: SVG Repo Mixer Tools -->
<svg height="800px" width="800px" version="1.1" id="Layer_1" xmlns="http://www.w3.org/2000/svg" xmlns:xlink="http://www.w3.org/1999/xlink" 
	 viewBox="0 0 512.002 512.002" xml:space="preserve">
<g>
	<path style="fill:#13A085;" d="M512.002,394.849c0,62.308-50.506,112.814-112.814,112.814s-112.814-50.506-112.814-112.814
		s50.506-112.814,112.814-112.814S512.002,332.541,512.002,394.849"/>
	<g>
		<path style="fill:#FFFFFF;" d="M399.189,465.238c-23.925,0-43.39-19.465-43.39-43.39c0-4.799,3.879-8.678,8.678-8.678
			s8.678,3.879,8.678,8.678c0,14.353,11.681,26.034,26.034,26.034c7.68,0,14.926-3.367,19.881-9.225
			c2.23-2.638,3.246-6.049,2.881-9.598c-0.399-3.81-2.36-7.359-5.398-9.711l-45.386-35.302
			c-6.751-5.259-11.125-13.138-12.002-21.634c-0.859-8.296,1.579-16.315,6.89-22.58c8.261-9.771,20.341-15.377,33.132-15.377
			c23.925,0,43.39,19.473,43.39,43.39c0,4.799-3.879,8.678-8.678,8.678s-8.678-3.879-8.678-8.678
			c0-14.353-11.681-26.034-26.034-26.034c-7.68,0-14.926,3.367-19.881,9.233c-2.23,2.638-3.246,6.031-2.881,9.58
			c0.399,3.818,2.36,7.359,5.398,9.719l45.386,35.311c6.743,5.233,11.116,13.121,12.002,21.599
			c0.868,8.305-1.579,16.332-6.89,22.606C424.06,459.632,411.98,465.238,399.189,465.238"/>
		<path style="fill:#FFFFFF;" d="M399.189,481.628c-4.799,0-8.678-3.879-8.678-8.678V316.747c0-4.799,3.879-8.678,8.678-8.678
			c4.799,0,8.678,3.879,8.678,8.678V472.95C407.867,477.749,403.988,481.628,399.189,481.628"/>
	</g>
	<g>
		<path style="fill:#4482C3;" d="M459.934,247.323c-4.799,0-8.678-3.879-8.678-8.678c0-5.597-0.208-11.212-0.625-16.714
			c-0.364-4.782,3.22-8.938,8.001-9.303c4.764-0.338,8.938,3.22,9.303,8.001c0.451,5.918,0.677,11.993,0.677,18.015
			C468.612,243.444,464.733,247.323,459.934,247.323"/>
		<path style="fill:#4482C3;" d="M438.332,153.009c-3.176,0-6.239-1.744-7.767-4.773c-2.881-5.736-6.075-11.325-9.476-16.636
			c-2.586-4.027-1.415-9.398,2.612-11.993c4.027-2.586,9.398-1.415,11.993,2.621c3.732,5.806,7.22,11.932,10.388,18.198
			c2.152,4.287,0.425,9.502-3.853,11.663C440.979,152.714,439.643,153.009,438.332,153.009 M454.933,200.183
			c-3.992,0-7.585-2.777-8.47-6.838c-1.362-6.248-3.046-12.496-4.999-18.536c-1.475-4.565,1.024-9.459,5.589-10.926
			c4.599-1.475,9.459,1.033,10.926,5.58c2.126,6.587,3.957,13.381,5.45,20.194c1.015,4.686-1.953,9.303-6.639,10.327
			C456.174,200.122,455.541,200.183,454.933,200.183"/>
		<path style="fill:#4482C3;" d="M326.892,57.967c-0.885,0-1.779-0.139-2.673-0.425c-6.014-1.935-12.253-3.627-18.545-5.007
			c-4.677-1.024-7.637-5.649-6.613-10.335c1.024-4.686,5.675-7.619,10.335-6.613c6.83,1.501,13.616,3.332,20.168,5.45
			c4.556,1.467,7.055,6.361,5.58,10.926C333.955,55.624,330.562,57.967,326.892,57.967 M372.095,79.289
			c-1.605,0-3.228-0.443-4.677-1.371c-5.328-3.428-10.917-6.613-16.627-9.485c-4.278-2.161-5.996-7.376-3.844-11.663
			c2.152-4.278,7.359-5.996,11.655-3.844c6.239,3.141,12.357,6.639,18.189,10.379c4.035,2.595,5.207,7.966,2.621,11.993
			C377.744,77.883,374.95,79.289,372.095,79.289 M410.183,111.675c-2.378,0-4.747-0.972-6.456-2.881
			c-4.243-4.721-8.791-9.268-13.52-13.512c-3.567-3.202-3.862-8.687-0.66-12.253c3.202-3.558,8.713-3.87,12.253-0.66
			c5.189,4.66,10.188,9.65,14.839,14.831c3.202,3.575,2.907,9.051-0.66,12.262C414.322,110.946,412.248,111.675,410.183,111.675"/>
		<path style="fill:#4482C3;" d="M277.714,48.382c-0.217,0-0.443-0.009-0.659-0.026c-5.502-0.417-11.116-0.625-16.714-0.625
			c-4.799,0-8.678-3.879-8.678-8.678s3.879-8.678,8.678-8.678c6.023,0,12.097,0.226,18.015,0.677
			c4.782,0.364,8.366,4.521,8.001,9.303C286.011,44.92,282.21,48.382,277.714,48.382"/>
		<path style="fill:#4482C3;" d="M44.036,282.044c-4.504,0-8.296-3.463-8.643-8.027c-0.451-5.918-0.677-11.993-0.677-18.015
			c0-4.799,3.879-8.678,8.678-8.678s8.678,3.879,8.678,8.678c0,5.597,0.208,11.212,0.625,16.714c0.364,4.782-3.22,8.938-8.001,9.303
			C44.478,282.035,44.253,282.044,44.036,282.044"/>
		<path style="fill:#4482C3;" d="M53.604,331.188c-3.671,0-7.064-2.343-8.253-6.005c-2.126-6.587-3.957-13.373-5.45-20.194
			c-1.015-4.686,1.953-9.303,6.639-10.327c4.669-1.015,9.303,1.953,10.327,6.639c1.354,6.248,3.046,12.496,4.99,18.536
			c1.475,4.565-1.024,9.459-5.58,10.926C55.383,331.049,54.489,331.188,53.604,331.188 M74.943,376.409
			c-2.855,0-5.649-1.406-7.316-3.992c-3.723-5.806-7.22-11.932-10.379-18.198c-2.152-4.287-0.434-9.494,3.844-11.655
			c4.278-2.152,9.502-0.434,11.663,3.844c2.881,5.736,6.075,11.333,9.485,16.636c2.586,4.027,1.415,9.398-2.621,11.993
			C78.172,375.966,76.549,376.409,74.943,376.409"/>
		<path style="fill:#4482C3;" d="M107.324,414.501c-2.065,0-4.148-0.729-5.797-2.222c-5.198-4.66-10.188-9.65-14.839-14.839
			c-3.202-3.567-2.907-9.051,0.66-12.253c3.549-3.211,9.042-2.907,12.253,0.66c4.244,4.721,8.791,9.277,13.52,13.52
			c3.567,3.202,3.862,8.687,0.66,12.253C112.071,413.529,109.693,414.501,107.324,414.501 M148.623,442.643
			c-1.319,0-2.647-0.295-3.896-0.92c-6.239-3.15-12.357-6.639-18.189-10.388c-4.035-2.586-5.207-7.966-2.621-11.984
			c2.595-4.044,7.949-5.224,11.993-2.621c5.328,3.419,10.917,6.613,16.627,9.485c4.278,2.161,5.996,7.368,3.844,11.654
			C154.862,440.899,151.799,442.643,148.623,442.643 M195.796,459.262c-0.616,0-1.241-0.069-1.874-0.2
			c-6.83-1.501-13.607-3.332-20.159-5.45c-4.556-1.467-7.055-6.37-5.58-10.926c1.475-4.547,6.326-7.073,10.917-5.589
			c6.022,1.944,12.262,3.627,18.553,5.016c4.677,1.024,7.637,5.649,6.613,10.335C203.372,456.502,199.779,459.262,195.796,459.262"
			/>
		<path style="fill:#4482C3;" d="M242.985,464.272c-6.023,0-12.097-0.226-18.015-0.677c-4.782-0.364-8.366-4.53-8.001-9.303
			c0.364-4.79,4.591-8.392,9.303-8.001c5.502,0.417,11.116,0.625,16.714,0.625c4.799,0,8.678,3.879,8.678,8.678
			S247.784,464.272,242.985,464.272"/>
		<path style="fill:#4482C3;" d="M459.934,247.323c-2.222,0-4.443-0.85-6.135-2.543c-3.393-3.393-3.393-8.878,0-12.271
			l34.712-34.712c3.393-3.393,8.878-3.393,12.271,0c3.393,3.393,3.393,8.878,0,12.271L466.07,244.78
			C464.378,246.473,462.156,247.323,459.934,247.323"/>
		<path style="fill:#4482C3;" d="M459.934,247.323c-2.222,0-4.443-0.85-6.135-2.543l-34.712-34.712
			c-3.393-3.393-3.393-8.878,0-12.271c3.393-3.393,8.878-3.393,12.271,0l34.712,34.712c3.393,3.393,3.393,8.878,0,12.271
			C464.378,246.473,462.156,247.323,459.934,247.323"/>
		<path style="fill:#4482C3;" d="M8.68,299.391c-2.222,0-4.443-0.85-6.135-2.543c-3.393-3.393-3.393-8.878,0-12.271l34.712-34.712
			c3.393-3.393,8.878-3.393,12.271,0c3.393,3.393,3.393,8.878,0,12.271l-34.712,34.712C13.123,298.54,10.902,299.391,8.68,299.391"
			/>
		<path style="fill:#4482C3;" d="M78.104,299.391c-2.222,0-4.443-0.85-6.135-2.543l-34.712-34.712
			c-3.393-3.393-3.393-8.878,0-12.271c3.393-3.393,8.878-3.393,12.271,0l34.712,34.712c3.393,3.393,3.393,8.878,0,12.271
			C82.547,298.54,80.325,299.391,78.104,299.391"/>
	</g>
	<path style="fill:#FFFFFF;" d="M149.062,188.297c-4.2-2.1-6.864-6.404-6.864-11.099v-12.774c0.911-1.041,1.97-2.378,3.072-3.957
		c4.443-6.265,7.793-13.156,10.119-20.385c4.174-1.284,7.246-5.137,7.246-9.728v-13.616c0-3.003-1.328-5.675-3.402-7.559V89.481
		c0,0,4.044-30.659-37.471-30.659c-41.524,0-37.471,30.659-37.471,30.659v19.699c-2.074,1.883-3.402,4.556-3.402,7.559v13.616
		c0,3.593,1.883,6.76,4.712,8.583c3.393,14.822,12.314,25.487,12.314,25.487v12.453c0,4.539-2.482,8.713-6.474,10.891l-30.39,16.584
		c-2.074,1.128-3.931,2.551-5.606,4.122c18.588,13.468,41.359,21.495,66.048,21.495c24.654,0,47.39-8.001,65.961-21.426
		c-1.753-1.545-3.705-2.907-5.858-3.983L149.062,188.297z"/>
	<path style="fill:#C03A2B;" d="M121.494,4.34C59.186,4.34,8.68,54.846,8.68,117.154c0,37.61,18.475,70.821,46.766,91.318
		c1.675-1.571,3.532-2.985,5.606-4.122l30.39-16.575c3.992-2.178,6.474-6.361,6.474-10.9v-12.453c0,0-8.921-10.665-12.323-25.487
		c-2.829-1.822-4.712-4.981-4.712-8.583v-13.624c0-2.994,1.336-5.675,3.41-7.55v-19.69c0,0-4.053-30.668,37.471-30.668
		c41.507,0,37.471,30.668,37.471,30.668v19.69c2.074,1.874,3.402,4.556,3.402,7.55v13.624c0,4.591-3.072,8.444-7.246,9.737
		c-2.317,7.229-5.675,14.119-10.119,20.376c-1.111,1.579-2.161,2.916-3.072,3.957v12.774c0,4.695,2.655,8.999,6.864,11.099
		l32.534,16.263c2.143,1.076,4.079,2.43,5.823,3.966c28.36-20.48,46.887-53.708,46.887-91.37
		C234.307,54.846,183.801,4.34,121.494,4.34"/>
</g>
</svg>