<svg width="800" height="400" viewBox="0 0 800 400" xmlns="http://www.w3.org/2000/svg">
  <defs>
    <linearGradient id="blueGradient" x1="0%" y1="0%" x2="0%" y2="100%">
      <stop offset="0%" style="stop-color:#5DADE2;stop-opacity:1" />
      <stop offset="100%" style="stop-color:#2E86C1;stop-opacity:1" />
    </linearGradient>
    <linearGradient id="orangeGradient" x1="0%" y1="0%" x2="0%" y2="100%">
      <stop offset="0%" style="stop-color:#F39C12;stop-opacity:1" />
      <stop offset="100%" style="stop-color:#E67E22;stop-opacity:1" />
    </linearGradient>
  </defs>
  
  <!-- CRYPTO text -->
  <g transform="translate(50, 50)">
    <!-- C -->
    <rect x="0" y="0" width="60" height="20" fill="url(#blueGradient)"/>
    <rect x="0" y="20" width="20" height="80" fill="url(#blueGradient)"/>
    <rect x="0" y="100" width="60" height="20" fill="url(#blueGradient)"/>
    
    <!-- R -->
    <rect x="80" y="0" width="20" height="120" fill="url(#blueGradient)"/>
    <rect x="100" y="0" width="40" height="20" fill="url(#blueGradient)"/>
    <rect x="140" y="20" width="20" height="20" fill="url(#blueGradient)"/>
    <rect x="100" y="40" width="40" height="20" fill="url(#blueGradient)"/>
    <rect x="120" y="60" width="20" height="20" fill="url(#blueGradient)"/>
    <rect x="140" y="80" width="20" height="40" fill="url(#blueGradient)"/>
    
    <!-- Y -->
    <rect x="180" y="0" width="20" height="40" fill="url(#blueGradient)"/>
    <rect x="220" y="0" width="20" height="40" fill="url(#blueGradient)"/>
    <rect x="200" y="40" width="20" height="80" fill="url(#blueGradient)"/>
    
    <!-- P -->
    <rect x="260" y="0" width="20" height="120" fill="url(#blueGradient)"/>
    <rect x="280" y="0" width="40" height="20" fill="url(#blueGradient)"/>
    <rect x="320" y="20" width="20" height="20" fill="url(#blueGradient)"/>
    <rect x="280" y="40" width="40" height="20" fill="url(#blueGradient)"/>
    
    <!-- T -->
    <rect x="360" y="0" width="80" height="20" fill="url(#blueGradient)"/>
    <rect x="380" y="20" width="20" height="100" fill="url(#blueGradient)"/>
    
    <!-- O -->
    <rect x="460" y="0" width="60" height="20" fill="url(#blueGradient)"/>
    <rect x="460" y="20" width="20" height="80" fill="url(#blueGradient)"/>
    <rect x="500" y="20" width="20" height="80" fill="url(#blueGradient)"/>
    <rect x="460" y="100" width="60" height="20" fill="url(#blueGradient)"/>
  </g>
  
  <!-- FIGHTERS text -->
  <g transform="translate(50, 200)">
    <!-- F -->
    <rect x="0" y="0" width="20" height="120" fill="url(#orangeGradient)"/>
    <rect x="20" y="0" width="60" height="20" fill="url(#orangeGradient)"/>
    <rect x="20" y="40" width="40" height="20" fill="url(#orangeGradient)"/>
    
    <!-- I -->
    <rect x="100" y="0" width="60" height="20" fill="url(#orangeGradient)"/>
    <rect x="120" y="20" width="20" height="80" fill="url(#orangeGradient)"/>
    <rect x="100" y="100" width="60" height="20" fill="url(#orangeGradient)"/>
    
    <!-- G -->
    <rect x="180" y="0" width="60" height="20" fill="url(#orangeGradient)"/>
    <rect x="180" y="20" width="20" height="80" fill="url(#orangeGradient)"/>
    <rect x="180" y="100" width="60" height="20" fill="url(#orangeGradient)"/>
    <rect x="220" y="60" width="20" height="20" fill="url(#orangeGradient)"/>
    <rect x="220" y="80" width="20" height="40" fill="url(#orangeGradient)"/>
    
    <!-- H -->
    <rect x="260" y="0" width="20" height="120" fill="url(#orangeGradient)"/>
    <rect x="320" y="0" width="20" height="120" fill="url(#orangeGradient)"/>
    <rect x="280" y="40" width="40" height="20" fill="url(#orangeGradient)"/>
    
    <!-- T -->
    <rect x="360" y="0" width="80" height="20" fill="url(#orangeGradient)"/>
    <rect x="380" y="20" width="20" height="100" fill="url(#orangeGradient)"/>
    
    <!-- E -->
    <rect x="460" y="0" width="20" height="120" fill="url(#orangeGradient)"/>
    <rect x="480" y="0" width="60" height="20" fill="url(#orangeGradient)"/>
    <rect x="480" y="40" width="40" height="20" fill="url(#orangeGradient)"/>
    <rect x="480" y="100" width="60" height="20" fill="url(#orangeGradient)"/>
    
    <!-- R -->
    <rect x="560" y="0" width="20" height="120" fill="url(#orangeGradient)"/>
    <rect x="580" y="0" width="40" height="20" fill="url(#orangeGradient)"/>
    <rect x="620" y="20" width="20" height="20" fill="url(#orangeGradient)"/>
    <rect x="580" y="40" width="40" height="20" fill="url(#orangeGradient)"/>
    <rect x="600" y="60" width="20" height="20" fill="url(#orangeGradient)"/>
    <rect x="620" y="80" width="20" height="40" fill="url(#orangeGradient)"/>
    
    <!-- S -->
    <rect x="660" y="0" width="60" height="20" fill="url(#orangeGradient)"/>
    <rect x="660" y="20" width="20" height="20" fill="url(#orangeGradient)"/>
    <rect x="660" y="40" width="60" height="20" fill="url(#orangeGradient)"/>
    <rect x="700" y="60" width="20" height="20" fill="url(#orangeGradient)"/>
    <rect x="660" y="80" width="60" height="20" fill="url(#orangeGradient)"/>
    <rect x="660" y="100" width="60" height="20" fill="url(#orangeGradient)"/>
  </g>
</svg>