<?xml version="1.0" encoding="utf-8"?>
<!-- Uploaded to: SVG Repo, www.svgrepo.com, Generator: SVG Repo Mixer Tools -->
<svg fill="#000000" width="800px" height="800px" viewBox="0 0 32 32" version="1.1" xmlns="http://www.w3.org/2000/svg">
<title>fire-bomb</title>
<path d="M29.055 11.657c-2.653-4.609-7.752-6.917-12.7-6.226l-1.51-2.623-3.461 2.004c-1.143-2.004-3.984-5.844-7.496-2.333l0.365 0.574c0 0 3.075-3.926 6.478 2.136l-4.078 2.362 1.504 2.613c-3.086 3.954-3.65 9.549-0.992 14.167 3.492 6.067 11.224 8.148 17.268 4.648s8.113-11.256 4.621-17.324zM25.889 20.311c-0.061 3.921-2.080 6.377-4.65 7.426 0.534-0.817 0.852-1.842 0.852-2.955 0-2.672-1.832-4.837-4.092-4.837s-4.092 2.166-4.092 4.837c0 1.023 0.269 1.972 0.727 2.753-2.447-1.159-4.341-3.584-4.421-7.224-0.062-2.85 1.033-4.729 3.538-6.101-0.946 1.77-0.576 3.828 0.431 4.689-0.601-3.929 4.759-6.222 2.701-9.813h0c-0.001-0.001-0.002-0.003-0.002-0.004-0.023-0.040-0.048-0.081-0.073-0.122-0.004-0.007-0.008-0.014-0.013-0.021-0.027-0.043-0.054-0.086-0.083-0.129-0.002-0.003-0.004-0.005-0.006-0.008-0.027-0.040-0.054-0.079-0.082-0.119-0.006-0.009-0.013-0.018-0.020-0.027-0.030-0.042-0.062-0.085-0.094-0.127-0.003-0.004-0.006-0.008-0.009-0.012-0.030-0.039-0.060-0.077-0.091-0.116-0.009-0.011-0.018-0.022-0.027-0.034-0.034-0.042-0.069-0.084-0.106-0.127-0.004-0.004-0.008-0.009-0.011-0.013-0.033-0.039-0.068-0.078-0.103-0.117-0.011-0.013-0.023-0.025-0.034-0.038-0.037-0.041-0.075-0.082-0.114-0.123-0.002-0.002-0.004-0.004-0.006-0.007l-0-0.004c0.083 0.038 0.164 0.077 0.245 0.116 0.022 0.010 0.043 0.021 0.065 0.031 0.061 0.030 0.122 0.060 0.182 0.089 0.021 0.011 0.043 0.021 0.064 0.032 0.078 0.039 0.155 0.078 0.231 0.117 0.006 0.003 0.012 0.006 0.018 0.010 0.069 0.036 0.137 0.072 0.205 0.108 0.024 0.013 0.048 0.026 0.072 0.039 0.052 0.028 0.103 0.056 0.154 0.084 0.023 0.013 0.046 0.026 0.069 0.039 4.686 2.63 5.471 6.009 3.358 9.893 2.117-1.135 3.031-2.807 2.141-5.238 2.044 1.373 3.122 4.104 3.077 7.051z"></path>
</svg>