<svg width="64" height="64" viewBox="0 0 64 64" xmlns="http://www.w3.org/2000/svg">
  <!-- Degen Ape Character - NFT/Meme culture -->
  
  <!-- Body -->
  <rect x="20" y="32" width="24" height="20" fill="#8B4513" stroke="#654321" stroke-width="2"/>
  
  <!-- Head (ape-like) -->
  <ellipse cx="32" cy="20" rx="14" ry="12" fill="#D2691E" stroke="#A0522D" stroke-width="2"/>
  
  <!-- Ape ears -->
  <ellipse cx="22" cy="16" rx="4" ry="6" fill="#D2691E" stroke="#A0522D" stroke-width="1"/>
  <ellipse cx="42" cy="16" rx="4" ry="6" fill="#D2691E" stroke="#A0522D" stroke-width="1"/>
  
  <!-- Eyes (crazy/excited) -->
  <circle cx="28" cy="18" r="3" fill="#FFF"/>
  <circle cx="36" cy="18" r="3" fill="#FFF"/>
  <circle cx="28" cy="18" r="2" fill="#000"/>
  <circle cx="36" cy="18" r="2" fill="#000"/>
  
  <!-- Mouth (open/excited) -->
  <ellipse cx="32" cy="24" rx="4" ry="2" fill="#000"/>
  
  <!-- NFT Badge on Chest -->
  <rect x="28" y="38" width="8" height="8" fill="#FF69B4" stroke="#FF1493" stroke-width="1"/>
  <text x="32" y="43" text-anchor="middle" font-family="Arial" font-size="4" font-weight="bold" fill="#FFF">NFT</text>
  
  <!-- Arms -->
  <rect x="12" y="34" width="8" height="16" fill="#D2691E" stroke="#A0522D" stroke-width="1"/>
  <rect x="44" y="34" width="8" height="16" fill="#D2691E" stroke="#A0522D" stroke-width="1"/>
  
  <!-- Legs -->
  <rect x="22" y="52" width="8" height="12" fill="#FF4500" stroke="#FF6347" stroke-width="1"/>
  <rect x="34" y="52" width="8" height="12" fill="#FF4500" stroke="#FF6347" stroke-width="1"/>
  
  <!-- Diamond Hands (but flashy) -->
  <polygon points="12,50 16,46 20,50 16,54" fill="#00FFFF" stroke="#00CED1" stroke-width="1"/>
  <polygon points="44,50 48,46 52,50 48,54" fill="#00FFFF" stroke="#00CED1" stroke-width="1"/>
  
  <!-- Sparkles around hands -->
  <circle cx="10" cy="48" r="1" fill="#FFD700"/>
  <circle cx="22" cy="48" r="1" fill="#FFD700"/>
  <circle cx="42" cy="48" r="1" fill="#FFD700"/>
  <circle cx="54" cy="48" r="1" fill="#FFD700"/>
  
  <!-- DEGEN text on forehead -->
  <text x="32" y="12" text-anchor="middle" font-family="Arial" font-size="5" font-weight="bold" fill="#8B4513">DEGEN</text>
  
  <!-- Sunglasses -->
  <rect x="24" y="16" width="16" height="6" fill="#000" stroke="#333" stroke-width="1" rx="3"/>
  <line x1="24" y1="19" x2="18" y2="18" stroke="#000" stroke-width="2"/>
  <line x1="40" y1="19" x2="46" y2="18" stroke="#000" stroke-width="2"/>
</svg>