<svg width="64" height="64" viewBox="0 0 64 64" xmlns="http://www.w3.org/2000/svg">
  <!-- Whale Trader Character - Big crypto investor -->
  
  <!-- Body (larger/wider) -->
  <rect x="18" y="32" width="28" height="20" fill="#4B0082" stroke="#301934" stroke-width="2"/>
  
  <!-- Head -->
  <circle cx="32" cy="20" r="12" fill="#FFE4B5" stroke="#DEB887" stroke-width="2"/>
  
  <!-- Eyes (confident) -->
  <circle cx="28" cy="18" r="2" fill="#000"/>
  <circle cx="36" cy="18" r="2" fill="#000"/>
  
  <!-- Confident smile -->
  <path d="M 28 22 Q 32 25 36 22" stroke="#000" stroke-width="2" fill="none"/>
  
  <!-- Ethereum Symbol on Chest -->
  <polygon points="32,36 28,40 32,44 36,40" fill="#627EEA" stroke="#4B6BB8" stroke-width="1"/>
  <polygon points="32,38 30,40 32,42 34,40" fill="#FFFFFF"/>
  
  <!-- Arms (muscular) -->
  <rect x="10" y="34" width="8" height="16" fill="#FFE4B5" stroke="#DEB887" stroke-width="1"/>
  <rect x="46" y="34" width="8" height="16" fill="#FFE4B5" stroke="#DEB887" stroke-width="1"/>
  
  <!-- Legs -->
  <rect x="22" y="52" width="8" height="12" fill="#000080" stroke="#000066" stroke-width="1"/>
  <rect x="34" y="52" width="8" height="12" fill="#000080" stroke="#000066" stroke-width="1"/>
  
  <!-- Money Bags as Hands -->
  <circle cx="14" cy="50" r="4" fill="#228B22" stroke="#006400" stroke-width="1"/>
  <text x="14" y="53" text-anchor="middle" font-family="Arial" font-size="6" font-weight="bold" fill="#FFF">$</text>
  <circle cx="50" cy="50" r="4" fill="#228B22" stroke="#006400" stroke-width="1"/>
  <text x="50" y="53" text-anchor="middle" font-family="Arial" font-size="6" font-weight="bold" fill="#FFF">$</text>
  
  <!-- Crown on head -->
  <polygon points="26,8 32,4 38,8 36,12 28,12" fill="#FFD700" stroke="#FFA500" stroke-width="1"/>
  <circle cx="29" cy="10" r="1" fill="#FF0000"/>
  <circle cx="32" cy="8" r="1" fill="#FF0000"/>
  <circle cx="35" cy="10" r="1" fill="#FF0000"/>
  
  <!-- WHALE text on forehead -->
  <text x="32" y="16" text-anchor="middle" font-family="Arial" font-size="5" font-weight="bold" fill="#4B0082">WHALE</text>
</svg>